# xmcd CD database file
#
# Track frame offsets:
#	150
#	15015
#	33624
#	49888
#	70953
#	87214
#	105340
#	128382
#	142770
#	158940
#	176436
#	195002
#
# Disc length: 2907 seconds
#
# Revision: 0
# Processed by: cddbd v1.5.2PL0 Copyright (c) Steve Scherf et al.
# Submitted via: CDex 1.51
#
DISCID=830b590c
DTITLE=Rob Black - Hey Tomorrow
DYEAR=2010
DGENRE=Country
TTITLE0=Like I Remember You
TTITLE1=Hey Tomorrow
TTITLE2=Every Days A Good Day
TTITLE3=Goodbyes
TTITLE4=SouthernTexas
TTITLE5=Ain't Life Grand
TTITLE6=Bible And The Bottle
TTITLE7=This Job
TTITLE8=Put Your Money
TTITLE9=Letting Me Fail
TTITLE10=You Say You Hate Me
TTITLE11=Superhero
EXTD=YEAR: 2010
EXTT0=
EXTT1=
EXTT2=
EXTT3=
EXTT4=
EXTT5=
EXTT6=
EXTT7=
EXTT8=
EXTT9=
EXTT10=
EXTT11=
PLAYORDER=
